<svg width="108" height="37" viewBox="0 0 108 37" fill="none" xmlns="http://www.w3.org/2000/svg">
<path d="M0.64 36L13.12 8H19.52L32.04 36H25.24L15 11.28H17.56L7.28 36H0.64ZM6.88 30L8.6 25.08H23L24.76 30H6.88ZM20.36 5.52C19.5867 5.52 18.9333 5.26667 18.4 4.76C17.8667 4.25333 17.6 3.58667 17.6 2.76C17.6 1.93333 17.8667 1.26666 18.4 0.759998C18.9333 0.253332 19.5867 -1.43051e-06 20.36 -1.43051e-06C21.1333 -1.43051e-06 21.7867 0.253332 22.32 0.759998C22.88 1.26666 23.16 1.93333 23.16 2.76C23.16 3.58667 22.88 4.25333 22.32 4.76C21.7867 5.26667 21.1333 5.52 20.36 5.52ZM12.28 5.52C11.5067 5.52 10.84 5.26667 10.28 4.76C9.74667 4.25333 9.48 3.58667 9.48 2.76C9.48 1.93333 9.74667 1.26666 10.28 0.759998C10.84 0.253332 11.5067 -1.43051e-06 12.28 -1.43051e-06C13.0533 -1.43051e-06 13.7067 0.253332 14.24 0.759998C14.7733 1.26666 15.04 1.93333 15.04 2.76C15.04 3.58667 14.7733 4.25333 14.24 4.76C13.7067 5.26667 13.0533 5.52 12.28 5.52Z" fill="black"/>
<path d="M36.185 36V8H47.585C50.5717 8 53.185 8.6 55.425 9.8C57.6917 10.9733 59.4517 12.6133 60.705 14.72C61.9583 16.8267 62.585 19.2533 62.585 22C62.585 24.7467 61.9583 27.1733 60.705 29.28C59.4517 31.3867 57.6917 33.04 55.425 34.24C53.185 35.4133 50.5717 36 47.585 36H36.185ZM39.145 33.44H47.425C49.905 33.44 52.0517 32.96 53.865 32C55.705 31.0133 57.1317 29.6667 58.145 27.96C59.1583 26.2267 59.665 24.24 59.665 22C59.665 19.7333 59.1583 17.7467 58.145 16.04C57.1317 14.3333 55.705 13 53.865 12.04C52.0517 11.0533 49.905 10.56 47.425 10.56H39.145V33.44ZM69.2319 36V8H72.1919V36H69.2319ZM81.3022 36V8H84.2622V33.44H99.9422V36H81.3022ZM105.748 36.2C105.161 36.2 104.654 35.9867 104.228 35.56C103.828 35.1333 103.628 34.6133 103.628 34C103.628 33.36 103.828 32.84 104.228 32.44C104.654 32.04 105.161 31.84 105.748 31.84C106.334 31.84 106.828 32.04 107.228 32.44C107.654 32.84 107.868 33.36 107.868 34C107.868 34.6133 107.654 35.1333 107.228 35.56C106.828 35.9867 106.334 36.2 105.748 36.2Z" fill="#1E1E1E"/>
</svg>
