<?xml version="1.0" standalone="no"?>
<!DOCTYPE svg PUBLIC "-//W3C//DTD SVG 20010904//EN"
 "http://www.w3.org/TR/2001/REC-SVG-20010904/DTD/svg10.dtd">
<svg version="1.0" xmlns="http://www.w3.org/2000/svg"
 width="920.000000pt" height="920.000000pt" viewBox="0 0 920.000000 920.000000"
 preserveAspectRatio="xMidYMid meet">

<g transform="translate(0.000000,920.000000) scale(0.100000,-0.100000)"
fill="#000000" stroke="none">
<path d="M4330 9184 c-661 -45 -1263 -210 -1825 -499 -1325 -682 -2240 -1964
-2449 -3430 -35 -247 -41 -336 -40 -655 0 -318 5 -412 40 -655 230 -1614 1312
-2992 2829 -3603 402 -162 769 -253 1236 -309 179 -21 745 -24 914 -5 814 92
1475 328 2115 755 1080 720 1815 1887 1994 3162 36 257 41 337 41 655 0 381
-18 573 -86 910 -234 1179 -942 2235 -1949 2907 -622 415 -1282 655 -2055 748
-124 15 -638 28 -765 19z m2339 -2768 c32 -17 51 -54 51 -98 0 -17 -13 -97
-29 -177 -17 -80 -111 -558 -211 -1061 -100 -503 -215 -1086 -257 -1295 -153
-774 -172 -863 -186 -891 -22 -41 -76 -90 -119 -108 -43 -19 -139 -20 -185 -3
-18 7 -72 42 -120 79 -118 91 -1007 771 -1260 965 -112 85 -203 158 -203 162
0 3 433 395 961 871 592 532 967 877 977 896 20 42 10 64 -27 64 -48 0 -68
-11 -354 -193 -149 -96 -508 -324 -797 -507 -289 -183 -708 -449 -932 -592
-223 -142 -412 -258 -420 -258 -19 0 -921 306 -956 324 -142 74 -162 197 -44
276 21 14 230 101 463 192 233 92 741 291 1129 443 388 152 1061 416 1495 587
435 171 808 316 830 323 55 18 160 18 194 1z"/>
</g>
</svg>
